# xmcd
#
# Track frame offsets: 
#        150
#        16218
#        33951
#        58280
#        80137
#        110638
#        129806
#        142739
#        158417
#        180364
#        201287
#        214185
#
# Disc length: 2999 seconds
#
# Revision: 0
# Processed by: cddbd v1.5.2PL0 Copyright (c) Steve Scherf et al.
# Submitted via: ExactAudioCopy v1.3
#
DISCID=9a0bb50c
DTITLE=Midnite Johnny Morana - So Complicated
DYEAR=2015
DGENRE=Blues Rock
TTITLE0=Hello Trouble
TTITLE1=Come On Home
TTITLE2=Spy Boy
TTITLE3=Everybody Ought To Make A Change
TTITLE4=So Complicated
TTITLE5=Walk On
TTITLE6=You Can't Come In
TTITLE7=Like Elmore James
TTITLE8=You're Not The Only One
TTITLE9=Ain't Superstitous
TTITLE10=Through With Love
TTITLE11=Hurt
EXTD=
EXTT0=
EXTT1=
EXTT2=
EXTT3=
EXTT4=
EXTT5=
EXTT6=
EXTT7=
EXTT8=
EXTT9=
EXTT10=
EXTT11=
PLAYORDER=
